<?xml version="1.0" standalone="no"?>
<!DOCTYPE svg PUBLIC "-//W3C//DTD SVG 20010904//EN"
 "http://www.w3.org/TR/2001/REC-SVG-20010904/DTD/svg10.dtd">
<svg version="1.0" xmlns="http://www.w3.org/2000/svg"
 width="112.000000pt" height="112.000000pt" viewBox="0 0 112.000000 112.000000"
 preserveAspectRatio="xMidYMid meet">
<metadata>
Created by potrace 1.10, written by Peter Selinger 2001-2011
</metadata>
<g transform="translate(0.000000,112.000000) scale(0.100000,-0.100000)"
fill="#71bcf5" stroke="none">
<path d="M465 1053 c-209 -53 -343 -176 -394 -363 -75 -272 65 -536 336 -631
88 -31 225 -29 320 4 226 79 368 300 346 538 -14 150 -119 315 -248 389 -96
55 -270 85 -360 63z m233 -31 c2 -7 12 -12 23 -12 31 0 91 -29 84 -40 -3 -5 1
-10 11 -10 36 0 166 -125 148 -143 -3 -3 3 -10 14 -16 10 -6 25 -31 32 -56 7
-25 16 -45 20 -45 9 0 28 -116 25 -160 -3 -61 -17 -130 -26 -130 -4 0 -7 -8
-7 -17 2 -26 -29 -93 -42 -93 -6 0 -9 -4 -5 -9 9 -16 -127 -151 -153 -151 -12
0 -21 -5 -19 -11 1 -6 -17 -20 -40 -30 -30 -13 -43 -15 -43 -6 0 7 -7 4 -14
-6 -14 -19 -21 -21 -101 -31 -61 -9 -187 11 -198 31 -5 7 -12 11 -17 8 -11 -7
-80 23 -80 35 0 6 -6 10 -13 10 -20 0 -58 35 -49 45 4 5 2 5 -5 2 -12 -7 -93
77 -93 97 0 6 -9 19 -19 28 -10 9 -22 34 -26 57 -4 23 -10 41 -15 41 -8 0 -22
69 -25 130 -4 52 16 143 32 157 8 6 12 16 9 21 -9 14 21 79 39 86 9 3 14 10
11 15 -3 4 3 19 14 31 11 13 20 19 21 14 0 -5 4 1 9 14 5 12 20 27 32 32 13 5
19 9 15 9 -15 2 21 31 38 31 8 0 18 6 21 14 7 17 81 49 95 41 5 -4 9 -2 9 4 0
20 66 30 174 27 73 -2 111 -7 114 -14z"/>
<path d="M511 854 c-1 -9 -77 -38 -103 -39 -4 0 -15 -10 -23 -22 -9 -13 -23
-23 -31 -23 -8 0 -14 -7 -14 -15 0 -8 -11 -22 -25 -31 -14 -9 -24 -19 -21 -21
2 -3 -2 -23 -10 -45 -8 -22 -14 -53 -14 -69 0 -16 -5 -29 -11 -29 -7 0 -8 -7
-4 -17 4 -10 8 -25 10 -33 19 -88 33 -117 80 -166 31 -32 65 -56 90 -64 22 -7
49 -17 60 -23 22 -12 117 -17 125 -7 3 4 31 17 63 29 40 17 70 38 100 72 23
26 42 52 42 56 1 4 6 18 13 31 7 12 10 22 7 22 -3 0 0 10 6 23 15 26 19 119 6
128 -4 3 -10 12 -11 20 -2 8 -8 27 -14 42 -7 16 -12 30 -12 32 0 14 -113 115
-128 115 -10 0 -23 5 -30 12 -7 7 -12 8 -12 4 0 -5 -11 -1 -25 8 -14 9 -25 12
-25 6 0 -14 -27 -12 -34 3 -5 10 -7 10 -12 0 -3 -7 -12 -13 -19 -13 -7 0 -16
6 -18 13 -3 7 -6 8 -6 1z m145 -41 c66 -22 145 -101 167 -167 77 -226 -133
-436 -359 -359 -66 22 -145 101 -167 167 -37 108 -13 212 67 292 80 79 185
104 292 67z"/>
</g>
</svg>
