<?xml version="1.0" standalone="no"?>
<!DOCTYPE svg PUBLIC "-//W3C//DTD SVG 20010904//EN"
 "http://www.w3.org/TR/2001/REC-SVG-20010904/DTD/svg10.dtd">
<svg version="1.0" xmlns="http://www.w3.org/2000/svg"
 width="512.000000pt" height="512.000000pt" viewBox="0 0 512.000000 512.000000"
 preserveAspectRatio="xMidYMid meet">

<g transform="translate(0.000000,512.000000) scale(0.100000,-0.100000)"
fill="#000000" stroke="none">
<path d="M1933 4656 c-23 -7 -62 -25 -85 -39 -24 -14 -437 -421 -919 -904
-947 -949 -907 -905 -924 -1030 -8 -63 15 -162 51 -217 15 -21 435 -447 935
-945 500 -498 909 -910 909 -914 0 -4 -293 -7 -651 -7 -439 0 -657 -3 -670
-11 -43 -22 -43 -93 -1 -125 14 -11 434 -13 2249 -14 1227 0 2239 3 2248 6 23
9 47 61 39 87 -3 12 -13 30 -22 40 -14 16 -52 17 -534 17 -285 0 -518 3 -518
8 0 4 201 207 446 452 326 326 452 458 471 495 38 72 43 187 13 270 -22 58
-62 100 -1384 1423 -1125 1127 -1370 1367 -1414 1389 -65 32 -174 40 -239 19z
m142 -147 c35 -9 217 -187 1388 -1357 1453 -1452 1387 -1382 1373 -1475 -9
-58 -59 -127 -92 -127 -14 0 -503 88 -1087 196 -985 181 -1067 197 -1133 229
-122 59 -222 177 -258 305 -8 30 -101 526 -207 1102 l-192 1048 24 26 c28 30
53 45 94 55 43 10 46 10 90 -2z m-155 -1229 c100 -547 193 -1029 207 -1070 63
-193 220 -349 411 -409 37 -11 510 -102 1052 -201 542 -100 993 -184 1004
-187 15 -4 -63 -87 -385 -409 l-404 -404 -367 0 c-202 0 -369 3 -371 8 -2 4 7
156 19 337 25 368 29 488 14 515 -23 43 -116 40 -134 -6 -4 -9 -11 -88 -16
-173 -13 -204 -38 -551 -46 -623 l-6 -58 -382 0 -381 0 -969 969 -968 968 73
7 c41 3 187 13 324 21 1257 74 1174 67 1201 99 36 41 28 92 -17 117 -16 8
-218 -1 -810 -37 -434 -26 -791 -45 -795 -42 -3 4 0 17 6 30 17 33 1543 1559
1551 1550 4 -4 89 -455 189 -1002z"/>
</g>
</svg>
