<?xml version="1.0" standalone="no"?>
<!DOCTYPE svg PUBLIC "-//W3C//DTD SVG 20010904//EN"
 "http://www.w3.org/TR/2001/REC-SVG-20010904/DTD/svg10.dtd">
<svg version="1.0" xmlns="http://www.w3.org/2000/svg"
 width="512.000000pt" height="512.000000pt" viewBox="0 0 512.000000 512.000000"
 preserveAspectRatio="xMidYMid meet">

<g transform="translate(0.000000,512.000000) scale(0.100000,-0.100000)"
fill="#000000" stroke="none">
<path d="M842 5100 c-126 -33 -169 -65 -388 -284 -213 -213 -280 -295 -343
-416 -138 -264 -134 -591 12 -956 69 -170 194 -352 405 -589 160 -179 2082
-2106 2305 -2311 260 -239 434 -360 623 -434 349 -134 645 -143 898 -26 136
62 220 130 446 356 182 181 221 225 248 280 82 169 83 350 1 513 -26 51 -87
118 -346 382 -473 480 -531 536 -599 572 -155 83 -311 83 -468 1 -47 -25 -109
-80 -265 -236 l-204 -203 -206 204 c-136 135 -215 206 -232 209 -76 14 -143
-56 -120 -125 8 -22 91 -112 259 -279 264 -263 281 -275 339 -244 15 8 132
119 258 246 266 268 289 284 405 284 62 0 84 -5 125 -26 36 -19 162 -138 452
-430 465 -466 458 -457 458 -613 0 -136 -15 -161 -240 -387 -312 -315 -437
-384 -700 -382 -148 1 -235 18 -408 82 -188 69 -342 176 -617 430 -192 176
-2082 2075 -2262 2274 -245 268 -345 429 -419 677 -86 290 -61 512 82 722 54
80 355 397 431 454 72 54 163 81 245 71 124 -14 133 -22 570 -458 277 -277
410 -417 430 -452 24 -44 28 -62 28 -131 0 -64 -5 -89 -23 -125 -15 -28 -112
-134 -262 -285 -132 -132 -244 -253 -250 -269 -7 -20 -7 -38 0 -60 13 -39 483
-510 524 -526 38 -14 89 2 110 35 9 13 16 43 16 66 0 41 -4 46 -204 248 l-205
206 213 221 c221 229 251 271 275 375 16 66 13 178 -5 240 -36 124 -52 143
-507 596 -375 375 -440 435 -496 463 -121 60 -258 74 -389 40z"/>
<path d="M2901 4496 c-70 -39 -65 -147 7 -174 15 -6 72 -13 127 -17 560 -36
1043 -412 1213 -945 39 -121 52 -197 61 -339 7 -112 8 -114 39 -142 45 -40 93
-39 134 2 l31 30 -6 127 c-11 282 -114 576 -284 816 -69 96 -253 283 -341 346
-176 126 -350 209 -543 259 -179 46 -390 64 -438 37z"/>
<path d="M2914 3921 c-61 -26 -82 -108 -41 -157 21 -24 35 -28 137 -41 201
-24 339 -86 472 -211 151 -143 224 -298 246 -522 9 -84 13 -97 36 -117 51 -43
131 -24 156 38 26 61 -11 282 -69 419 -124 290 -392 510 -701 575 -89 18 -211
27 -236 16z"/>
<path d="M2881 3312 c-63 -62 -26 -155 67 -167 121 -16 179 -72 197 -189 14
-100 103 -140 167 -76 29 29 30 33 26 103 -10 188 -164 343 -353 355 -72 4
-75 4 -104 -26z"/>
<path d="M2321 2454 c-26 -21 -31 -33 -31 -68 0 -53 21 -82 69 -97 50 -15 96
8 117 57 41 98 -73 177 -155 108z"/>
</g>
</svg>
