<?xml version="1.0" standalone="no"?>
<!DOCTYPE svg PUBLIC "-//W3C//DTD SVG 20010904//EN"
 "http://www.w3.org/TR/2001/REC-SVG-20010904/DTD/svg10.dtd">
<svg version="1.0" xmlns="http://www.w3.org/2000/svg"
 width="512.000000pt" height="512.000000pt" viewBox="0 0 512.000000 512.000000"
 preserveAspectRatio="xMidYMid meet">

<g transform="translate(0.000000,512.000000) scale(0.100000,-0.100000)"
fill="#000000" stroke="none">
<path d="M2415 5114 c-725 -60 -1346 -480 -1667 -1128 -139 -280 -200 -550
-201 -886 -1 -329 56 -585 197 -885 81 -171 146 -265 534 -760 193 -247 223
-281 254 -289 67 -17 128 30 128 97 0 30 1 29 -310 427 -259 332 -328 429
-399 561 -202 376 -260 858 -155 1280 130 523 476 955 959 1197 168 84 367
145 560 173 121 17 406 15 520 -4 400 -67 729 -234 1008 -510 350 -348 537
-799 537 -1289 -1 -414 -123 -781 -369 -1103 -25 -33 -346 -445 -713 -916
-483 -620 -676 -860 -697 -869 -41 -17 -82 -5 -118 33 -16 18 -109 134 -207
259 -97 125 -188 236 -203 247 -60 48 -153 4 -153 -72 0 -43 8 -55 241 -353
204 -262 238 -293 338 -315 100 -21 208 11 279 84 39 40 1309 1664 1416 1810
197 270 324 585 371 922 21 145 21 405 0 548 -65 445 -258 832 -574 1147 -317
316 -685 504 -1122 574 -98 16 -363 27 -454 20z"/>
<path d="M2440 4394 c-161 -21 -332 -70 -451 -129 -295 -149 -535 -415 -644
-715 -145 -399 -94 -828 141 -1180 64 -98 214 -252 312 -323 245 -176 508
-255 817 -244 175 6 320 38 470 105 406 179 690 545 761 980 24 146 14 383
-21 520 -28 110 -71 221 -110 288 -32 55 -78 73 -128 49 -69 -33 -73 -89 -14
-220 59 -133 78 -221 84 -390 4 -127 2 -166 -16 -252 -107 -517 -553 -883
-1076 -883 -295 0 -560 108 -770 315 -133 131 -224 278 -279 452 -36 117 -48
201 -48 338 1 309 115 572 342 789 317 301 779 386 1178 216 105 -45 156 -39
187 20 46 88 -8 139 -218 206 -45 14 -113 32 -152 40 -72 14 -303 26 -365 18z"/>
<path d="M3370 4032 c-76 -38 -72 -145 5 -178 102 -42 187 81 108 156 -38 37
-71 43 -113 22z"/>
<path d="M1763 1062 c-34 -5 -73 -58 -73 -99 0 -25 8 -43 29 -64 75 -74 201 5
161 101 -7 16 -18 34 -25 40 -18 15 -66 26 -92 22z"/>
</g>
</svg>
